<svg width="497.90000000000003" height="87.47109874107555" viewBox="0 0 370.18518518518516 65.03415321513691" class="looka-1j8o68f">
<defs id="SvgjsDefs1869">
</defs>
<g id="SvgjsG1870" featurekey="symbolFeature-0" transform="matrix(0.6822612285614014,0,0,0.6822612285614014,-1.023391812865497,-0.9138215122631883)" fill="#ffffff">
<g xmlns="http://www.w3.org/2000/svg">
<path d="M91.7905,44.9495H74.29v-6.8447c0-3.3765-2.7466-6.123-6.1226-6.123h-19.459c-3.376,0-6.1226,2.7466-6.1226,6.123v6.8447   H25.0854c-2.5967,0-4.7095,2.1128-4.7095,4.7095v42.2905c0,2.5967,2.1128,4.7095,4.7095,4.7095   c17.1616,0.0001,49.4973,0.0042,66.7051,0c2.5967,0,4.7095-2.1128,4.7095-4.7095V49.659   C96.5,47.0623,94.3872,44.9495,91.7905,44.9495z M82.3096,94.659h-2.6606V71.5311h2.6606V94.659z M34.5669,94.659V71.5311h2.6602   V94.659H34.5669z M34.5669,46.952h2.6602v15.2456h-2.6602V46.952z M34.897,64.1976v3.2559h2v-3.2559h2.3301h0.2788v5.3335h-0.2788   h-6.6602h-0.2788v-5.3335h0.2788H34.897z M39.2271,82.4573h38.4219v3.8311H39.2271V82.4573z M77.6489,69.5311h-0.2788v-5.3335   h0.2788h2.3301v3.2559h2v-3.2559h2.3306h0.2788v5.3335h-0.2788H77.6489z M82.3096,62.1976h-2.6606V46.952h2.6606V62.1976z    M44.5859,38.1048c0-2.2734,1.8496-4.123,4.1226-4.123h19.459c2.2729,0,4.1226,1.8496,4.1226,4.123v6.8447h-2.7314v-4.1934   c0-1.3599-1.106-2.4658-2.4658-2.4658H49.7832c-1.3599,0-2.4658,1.106-2.4658,2.4658v4.1934h-2.7314V38.1048z M67.5586,44.9495   H49.3174v-4.1934c0-0.2568,0.209-0.4658,0.4658-0.4658h17.3096c0.2568,0,0.4658,0.209,0.4658,0.4658V44.9495z M77.6489,46.9495   v15.248h-2.2788v9.3335h2.2788v8.9263H39.2271v-8.9263h2.2788v-9.3335h-2.2788v-15.248   C40.0995,46.9495,79.5822,46.9495,77.6489,46.9495z M25.0854,94.659c-1.4941,0-2.7095-1.2153-2.7095-2.7095V49.659   c0-1.4941,1.2153-2.7095,2.7095-2.7095h7.4814v15.248h-2.2788v9.3335h2.2788V94.659H25.0854z M39.2271,94.659v-6.3706h38.4219   v6.3706H39.2271z M94.5,91.9495c0,1.4941-1.2153,2.7095-2.7095,2.7095h-7.481V71.5311h2.2788v-9.3335h-2.2788v-15.248h7.481   c1.4941,0,2.7095,1.2153,2.7095,2.7095V91.9495z">
</path>
<rect x="90.021" y="79.1541" width="2" height="9.6919">
</rect>
<rect x="90.021" y="72.5945" width="2" height="3.4009">
</rect>
<rect x="25.8789" y="79.1541" width="2" height="9.6919">
</rect>
<rect x="25.8789" y="72.5945" width="2" height="3.4009">
</rect>
<rect x="87.6016" y="39.6483" width="2" height="2">
</rect>
<rect x="83.6016" y="39.6483" width="2" height="2">
</rect>
<rect x="79.6016" y="39.6483" width="2" height="2">
</rect>
<rect x="25.7168" y="39.6483" width="2" height="2">
</rect>
<rect x="33.7168" y="39.6483" width="2" height="2">
</rect>
<rect x="29.7168" y="39.6483" width="2" height="2">
</rect>
<path d="M11.625,30.6151c-0.3091,0.6074-0.604,1.2236-0.8843,1.8481l1.8252,0.8184c0.2666-0.5942,0.5474-1.1812,0.8413-1.7603   L11.625,30.6151z">
</path>
<path d="M11.8086,35.0814l-1.8613-0.7314c-0.249,0.6343-0.4834,1.2759-0.7021,1.9248l1.8945,0.6396   C11.3486,36.2967,11.5713,35.6854,11.8086,35.0814z">
</path>
<path d="M10.2305,66.3265c0.2603,0.6323,0.5366,1.2573,0.8267,1.874l1.8096-0.8516c-0.2764-0.5874-0.5391-1.1821-0.7876-1.7842   L10.2305,66.3265z">
</path>
<path d="M13.7402,69.095l-1.7676,0.9365c0.3203,0.604,0.6548,1.1992,1.0029,1.7856l1.7197-1.0215   C14.3638,70.2376,14.0449,69.6707,13.7402,69.095z">
</path>
<path d="M15.2529,28.2689l-1.6934-1.0645c-0.332,0.5288-0.6533,1.0645-0.9634,1.6074l1.7373,0.9912   C14.6289,29.2845,14.9355,28.7733,15.2529,28.2689z">
</path>
<path d="M10.5601,38.7791l-1.9238-0.5479c-0.1865,0.6548-0.3579,1.3159-0.5137,1.9829l1.9473,0.4551   C10.2188,40.0335,10.3823,39.4036,10.5601,38.7791z">
</path>
<path d="M10.7642,61.8909l-1.9131,0.582c0.1987,0.6548,0.4136,1.3027,0.6431,1.9438l1.8828-0.6738   C11.1582,63.1321,10.9541,62.5145,10.7642,61.8909z">
</path>
<path d="M9.8096,58.1082l-1.9609,0.3955c0.1357,0.6714,0.2866,1.3374,0.4531,1.9966l1.9395-0.4893   C10.0825,59.3821,9.9385,58.7484,9.8096,58.1082z">
</path>
<path d="M7.7056,42.2191c-0.123,0.6694-0.23,1.3442-0.3213,2.0239l1.9824,0.2656c0.0864-0.6475,0.1885-1.29,0.3057-1.9282   L7.7056,42.2191z">
</path>
<path d="M16.478,76.8572c0.4292,0.5313,0.8696,1.0522,1.3228,1.562l1.4951-1.3281c-0.4316-0.4863-0.8525-0.9829-1.2612-1.4897   L16.478,76.8572z">
</path>
<path d="M15.7314,72.4505l-1.6689,1.1016c0.3765,0.5703,0.7656,1.1309,1.1685,1.6816l1.6143-1.1807   C16.4619,73.5286,16.0903,72.9944,15.7314,72.4505z">
</path>
<path d="M7.0693,52.4168l1.9971-0.1123c-0.0361-0.646-0.0571-1.2964-0.0625-1.9502l-2,0.0156   C7.0093,51.056,7.0313,51.7386,7.0693,52.4168z">
</path>
<path d="M9.4697,56.1863c-0.0977-0.6401-0.1802-1.2856-0.2476-1.9355l-1.9893,0.2061c0.0703,0.6821,0.1567,1.3589,0.2593,2.0313   L9.4697,56.1863z">
</path>
<path d="M9.1533,46.4505l-1.9932-0.1709c-0.0576,0.6763-0.1001,1.3584-0.1265,2.0439l1.999,0.0762   C9.0571,47.7454,9.0977,47.0955,9.1533,46.4505z">
</path>
<path d="M71.6318,13.1243l-1.0195,1.7207c0.5605,0.332,1.1123,0.6772,1.6553,1.0352l1.1006-1.6699   C72.7988,13.8348,72.2197,13.473,71.6318,13.1243z">
</path>
<path d="M64.2261,9.6463l-0.6719,1.8838c0.6138,0.2192,1.2212,0.4526,1.8218,0.7002l0.7627-1.8486   C65.5088,10.1214,64.8711,9.8763,64.2261,9.6463z">
</path>
<path d="M76.6743,16.6243c-0.5308-0.4277-1.0728-0.8428-1.624-1.2461l-1.1797,1.6152c0.5259,0.3838,1.0425,0.7803,1.5488,1.1885   L76.6743,16.6243z">
</path>
<path d="M89.8032,34.6048l-1.8662,0.7188c0.2285,0.5942,0.4438,1.1948,0.645,1.8013l1.8984-0.6299   C90.2695,35.8592,90.0435,35.2283,89.8032,34.6048z">
</path>
<path d="M69.8452,12.1224c-0.6021-0.3188-1.2129-0.6235-1.832-0.9146l-0.8506,1.8096c0.5898,0.2773,1.1724,0.5684,1.7461,0.8726   L69.8452,12.1224z">
</path>
<path d="M86.1465,27.2903l-1.6943,1.0625c0.3447,0.5503,0.6772,1.1099,0.9956,1.6772l1.7441-0.9795   C86.8569,28.4549,86.5088,27.868,86.1465,27.2903z">
</path>
<path d="M76.9106,19.4427c0.4863,0.4316,0.9629,0.875,1.4287,1.3296l1.3975-1.4307c-0.4888-0.4771-0.9883-0.9419-1.499-1.395   L76.9106,19.4427z">
</path>
<path d="M89.0215,32.7127c-0.2759-0.6255-0.5664-1.2427-0.8711-1.8521l-1.7891,0.8936c0.29,0.5811,0.5669,1.1699,0.8301,1.7661   L89.0215,32.7127z">
</path>
<path d="M82.2251,25.1483c0.396,0.5156,0.7798,1.0405,1.1504,1.5752l1.6436-1.1396c-0.3892-0.561-0.7925-1.1123-1.208-1.6533   L82.2251,25.1483z">
</path>
<path d="M80.9995,23.6287l1.5264-1.292c-0.4409-0.521-0.894-1.0313-1.3589-1.5303l-1.4639,1.3623   C80.1465,22.6453,80.5791,23.1321,80.9995,23.6287z">
</path>
<path d="M6.6665,26.4183l19.9912,0.6475l30.4561-9.4492c5.014-1.556,3.9055-9.0151-1.3652-9.0151   c-1.1204,0-1.6436,0.3438-4.2622,1.106l-3.0527-1.4702c-5.1337-2.4717-9.1913,0.5114-13.9247,1.5751l-13.7916-8.473l-7.7651,2.396   l9.8597,9.7062l-10.121,3.1401l-6.955-8.0758L1.5151,9.8152l2.8965,9.335H4.4116L6.6665,26.4183z M47.5654,10.0389l1.1175,0.5383   l-4.4183,1.3708l0.5928,1.9102l6.4697-2.0073h0.0001l3.647-1.1313c3.2786-1.0183,4.8568,3.9595,1.5469,4.9868L26.3862,25.056   L8.1548,24.4652l-1.2402-3.9975c8.6442-2.682,15.7073-4.8734,18.181-5.6409l11.6906-3.6155l-0.0125-0.0077   C40.2319,10.4353,43.5093,8.0838,47.5654,10.0389z M16.7412,4.659l3.7007-1.1421l11.5284,7.0829l-6.9913,2.1691L16.7412,4.659z    M6.3218,18.5574l-2.3037-7.4248l1.0576-0.3281l5.5322,6.4233C10.5056,17.2595,6.0455,18.6432,6.3218,18.5574z">
</path>
<rect x="21.6794" y="17.1717" transform="matrix(-0.3132 -0.9497 0.9497 -0.3132 12.5259 45.4017)" width="2.0001" height="1.9999">
</rect>
<rect x="25.5167" y="15.9482" transform="matrix(-0.3135 -0.9496 0.9496 -0.3135 18.7362 47.4416)" width="1.9997" height="2.0002">
</rect>
<rect x="29.3537" y="14.725" transform="matrix(-0.3132 -0.9497 0.9497 -0.3132 24.9276 49.4767)" width="2.0001" height="1.9999">
</rect>
<rect x="33.191" y="13.5014" transform="matrix(-0.3135 -0.9496 0.9496 -0.3135 31.1399 51.5151)" width="1.9997" height="2.0002">
</rect>
<rect x="15.6094" y="82.3802" width="2" height="2">
</rect>
<rect x="15.6094" y="90.3802" width="2" height="1.8257">
</rect>
<rect x="15.6094" y="86.3802" width="2" height="2">
</rect>
<rect x="84.979" y="7.845" width="2" height="2">
</rect>
<rect x="88.979" y="7.845" width="2" height="2">
</rect>
<rect x="80.979" y="7.845" width="2" height="2">
</rect>
<rect x="59.4067" y="23.1663" width="2" height="2">
</rect>
<rect x="51.4067" y="23.1663" width="2" height="2">
</rect>
<rect x="55.4067" y="23.1663" width="2" height="2">
</rect>
<rect x="5.5" y="79.449" width="2" height="2">
</rect>
<rect x="9.5" y="79.449" width="2" height="2">
</rect>
<rect x="1.5" y="79.449" width="2" height="2">
</rect>
<rect x="33.8013" y="25.9743" transform="matrix(0.9522 -0.3054 0.3054 0.9522 -6.5748 11.9158)" width="2.0003" height="1.9997">
</rect>
<rect x="29.9927" y="27.1959" transform="matrix(0.9522 -0.3054 0.3054 0.9522 -7.131 10.8138)" width="1.9999" height="2">
</rect>
<rect x="37.6104" y="24.752" transform="matrix(-0.9522 0.3054 -0.3054 -0.9522 83.2413 38.4802)" width="1.9999" height="2">
</rect>
</g>
</g>
<g id="SvgjsG1871" featurekey="nameFeature-0" transform="matrix(1.3142173290252686,0,0,1.3142173290252686,83.05495469235414,-1.5615243870108753)" fill="#ffffff">
<path d="M11.08 13.04 l-0.12 11.64 c1.84 0 3.6 -0.12 4.08 -0.24 c0.68 -0.16 1.24 -0.52 1.84 -1.24 c0.44 -0.6 0.92 -1.72 0.92 -2.48 c0 -0.28 0.12 -0.36 0.32 -0.36 l1.08 0.12 c0.2 0.04 0.36 0.08 0.32 0.32 c-0.12 0.68 -0.12 2.76 -0.12 4.16 c0 1.8 0.16 3.72 0.24 4.56 c0.04 0.24 -0.12 0.28 -0.32 0.32 l-0.96 0.2 c-0.16 0.04 -0.24 -0.04 -0.32 -0.32 c-0.16 -0.64 -0.56 -1.56 -0.8 -2.04 c-0.44 -0.76 -1.4 -1.28 -2.2 -1.4 c-1.08 -0.16 -2.32 -0.24 -4.08 -0.24 l0 2.4 c0 2.16 0.2 6.04 0.2 6.76 c0 2.08 0.44 2.8 0.96 3.04 c0.6 0.24 1.36 0.36 3.36 0.36 c0.68 0 2.36 -0.04 3.2 -0.12 c0.8 -0.08 2 -0.48 3.04 -1.32 s3.28 -3.32 4.08 -4.28 c0.16 -0.16 0.28 -0.2 0.4 -0.12 l0.68 0.4 c0.16 0.08 0.2 0.2 0.16 0.32 l-1.8 6.04 c-0.12 0.36 -0.4 0.6 -0.88 0.6 c-0.2 0 -1.08 -0.04 -3.64 -0.08 c-2.6 0 -6.84 -0.04 -13.76 -0.04 c-1.48 0 -2.6 0.04 -3.4 0.04 c-0.84 0.04 -1.36 0.08 -1.72 0.08 c-0.28 0 -0.36 -0.12 -0.36 -0.44 l0 -0.84 c0 -0.24 0.12 -0.36 0.4 -0.36 l1.2 0 c1.84 0 2 -0.28 2 -1.68 l0 -13.4 c0 -3.32 -0.08 -8.24 -0.12 -8.64 c-0.16 -1.28 -0.56 -1.56 -1.64 -1.56 l-1.56 0 c-0.16 0 -0.2 -0.12 -0.2 -0.4 l0 -0.96 c0 -0.12 0.04 -0.28 0.28 -0.28 c0.88 0 2.28 0.12 5.92 0.12 l14.04 -0.04 c0.64 0 1.4 -0.08 1.6 -0.08 s0.28 0.08 0.32 0.2 c0.16 0.56 1.48 6.04 1.64 6.44 c0.08 0.2 0.08 0.28 -0.12 0.4 l-0.64 0.32 c-0.16 0.08 -0.36 0.04 -0.48 -0.16 c-0.2 -0.32 -3.8 -3.92 -4.72 -4.48 c-0.84 -0.52 -1.96 -1.04 -3.04 -1.08 z M57.32 30.84 l0 5.28 c0 0.56 0.16 0.96 0.16 1.28 s-0.24 0.48 -0.64 0.64 c-3.24 1.64 -6.64 2.56 -11.72 2.56 c-4.16 0 -8.84 -1.32 -11.6 -4.56 c-2.44 -2.76 -3.68 -6.16 -3.68 -11 c0 -3.64 1.72 -7.52 4.64 -10.04 c2.92 -2.56 6.52 -3.92 11.32 -3.92 c4.04 0 7.04 1.12 8.36 1.96 c0.48 0.28 0.76 0.2 1 -0.12 l0.4 -0.64 c0.2 -0.28 0.28 -0.4 0.52 -0.4 c0.44 0 0.56 0.28 0.56 0.72 l0.6 8.24 c0.04 0.48 0 0.68 -0.16 0.72 l-1.12 0.24 c-0.24 0.04 -0.36 -0.04 -0.48 -0.4 c-0.64 -1.96 -1.92 -4.52 -3.64 -6.08 c-1.56 -1.48 -3.6 -2.48 -6.32 -2.48 c-2.16 0 -4.16 0.68 -6.04 3 c-1.84 2.2 -3.2 5.52 -3.2 9.12 c0 4.72 1.32 8.84 3.48 11 c1.88 1.88 3.4 2.72 6.12 2.72 c2.08 0 3.2 -0.16 4.52 -0.8 c0.84 -0.4 0.92 -1.68 0.92 -3.76 l0 -2.88 c0 -1.44 -0.4 -1.84 -1.4 -1.84 l-1.68 0 c-0.24 0 -0.28 -0.16 -0.28 -0.36 l0 -1 c0 -0.16 0.04 -0.28 0.28 -0.28 c0.36 0 2.32 0.12 5.92 0.12 c3.68 0 5.16 -0.12 5.48 -0.12 s0.36 0.12 0.36 0.32 l0 1 c0 0.24 -0.04 0.32 -0.28 0.32 l-1.16 0 c-0.72 0 -1.24 0.28 -1.24 1.44 z M63.400000000000006 30.560000000000002 l0 -2.56 c0 -0.24 0.08 -0.28 0.36 -0.28 l11.16 0 c0.32 0 0.48 0.08 0.48 0.44 l0 2.32 c0 0.2 -0.16 0.28 -0.4 0.28 l-11.28 0 c-0.24 0 -0.32 -0.08 -0.32 -0.2 z M76.56 24.2 l0 -0.8 c0 -0.28 0.08 -0.32 0.44 -0.32 c0.44 0 1.12 0.12 5.28 0.12 c2.72 0 3.76 -0.12 4.2 -0.12 c0.32 0 0.4 0.08 0.4 0.32 l0 0.8 c0 0.24 -0.04 0.4 -0.28 0.4 l-0.52 0 c-0.52 0 -1.04 0.24 -1.04 0.68 c0 0.72 1.2 3.92 1.48 4.64 l1.72 4.32 l0.24 0 c0.32 -0.68 2.4 -5.64 3.2 -7.84 c0.36 -1 -0.28 -1.8 -1 -1.8 l-0.72 0 c-0.12 0 -0.16 -0.2 -0.16 -0.4 l0 -0.8 c0 -0.24 0.08 -0.32 0.24 -0.32 c0.56 0 1.44 0.12 3.88 0.12 c2.08 0 3.04 -0.12 3.4 -0.12 c0.32 0 0.36 0.04 0.36 0.36 l0 0.76 c0 0.28 0 0.4 -0.2 0.4 l-0.68 0 c-0.56 0 -1.36 0.08 -1.84 0.6 c-0.72 0.8 -2.48 4.36 -3.4 6.28 c-0.48 1.04 -3.64 7.84 -3.88 8.32 c-0.24 0.44 -0.48 0.8 -1.04 0.8 c-0.52 0 -0.8 -0.4 -1.16 -1 c-0.4 -0.6 -3.64 -7.76 -3.8 -8.16 s-2.04 -4.88 -2.32 -5.36 c-0.68 -1.12 -1.04 -1.48 -1.76 -1.48 l-0.8 0 c-0.2 0 -0.24 -0.16 -0.24 -0.4 z  M106.52000000000001 29.36 l0 -2.12 c0 -0.8 -0.08 -1.72 -0.6 -2.2 c-0.4 -0.36 -1.04 -0.48 -1.68 -0.48 c-0.72 0 -1.4 0.16 -2.12 0.64 c-0.6 0.4 -0.12 1.08 -0.12 2.36 c0 1.36 -1 2.28 -2.6 2.28 c-0.92 0 -1.72 -0.56 -1.72 -1.44 s0.28 -2.08 1.12 -2.8 c1.68 -1.52 4.44 -2.96 7.68 -2.96 c2.56 0 3.24 0.4 4.08 1.16 c0.88 0.8 1.12 1.96 1.12 3.4 l0.08 7.96 c0.04 2.08 0.16 2.72 0.92 2.72 c0.56 0 1 -0.44 1.16 -0.72 c0.16 -0.24 0.28 -0.28 0.4 -0.2 l0.56 0.32 c0.16 0.08 0.28 0.2 0.12 0.56 c-0.36 0.84 -1.56 2.72 -4.04 2.72 c-1.56 0 -3.04 -0.56 -3.8 -2.44 l-0.2 0 c-1 0.92 -1.84 1.48 -3.44 2.08 c-0.8 0.28 -1.72 0.36 -2.88 0.36 c-1.4 0 -2.64 -1.52 -2.64 -3.68 c0 -1.76 0.84 -3.6 3.44 -4.88 c3.12 -1.48 4.12 -1.92 5.16 -2.64 z M106.56000000000002 36.64 l0 -5.68 c-1.96 1.12 -3.6 1.72 -3.6 4.48 c0 1.84 0.84 2.6 1.72 2.64 c1.08 -0.08 1.88 -1.08 1.88 -1.44 z M124.72000000000003 22.64 c5.24 0 6.4 2.64 6.4 3.88 c0 1.12 -0.8 1.88 -2.08 1.88 c-1.68 0 -2.56 -1.12 -2.88 -2.12 c-0.48 -1.44 -1.24 -1.92 -2.36 -1.92 c-1.08 0 -2.64 1.56 -2.64 4.08 s-0.08 4.32 1.28 6.8 c1 1.8 2.48 2.32 4.28 2.32 c1.84 0 2.72 -0.36 4 -1.28 c0.2 -0.12 0.32 -0.2 0.44 -0.04 l0.56 0.56 c0.12 0.16 0.08 0.32 -0.04 0.52 c-0.76 1.32 -3.88 3.24 -7.56 3.24 c-3 0 -5 -0.84 -6.28 -2.44 c-1.56 -1.92 -2.04 -3.48 -2.04 -5.52 c0 -2.72 0.88 -5.64 3 -7.6 c1.8 -1.64 3.76 -2.36 5.92 -2.36 z M142.20000000000002 29.36 l0 -2.12 c0 -0.8 -0.08 -1.72 -0.6 -2.2 c-0.4 -0.36 -1.04 -0.48 -1.68 -0.48 c-0.72 0 -1.4 0.16 -2.12 0.64 c-0.6 0.4 -0.12 1.08 -0.12 2.36 c0 1.36 -1 2.28 -2.6 2.28 c-0.92 0 -1.72 -0.56 -1.72 -1.44 s0.28 -2.08 1.12 -2.8 c1.68 -1.52 4.44 -2.96 7.68 -2.96 c2.56 0 3.24 0.4 4.08 1.16 c0.88 0.8 1.12 1.96 1.12 3.4 l0.08 7.96 c0.04 2.08 0.16 2.72 0.92 2.72 c0.56 0 1 -0.44 1.16 -0.72 c0.16 -0.24 0.28 -0.28 0.4 -0.2 l0.56 0.32 c0.16 0.08 0.28 0.2 0.12 0.56 c-0.36 0.84 -1.56 2.72 -4.04 2.72 c-1.56 0 -3.04 -0.56 -3.8 -2.44 l-0.2 0 c-1 0.92 -1.84 1.48 -3.44 2.08 c-0.8 0.28 -1.72 0.36 -2.88 0.36 c-1.4 0 -2.64 -1.52 -2.64 -3.68 c0 -1.76 0.84 -3.6 3.44 -4.88 c3.12 -1.48 4.12 -1.92 5.16 -2.64 z M142.24 36.64 l0 -5.68 c-1.96 1.12 -3.6 1.72 -3.6 4.48 c0 1.84 0.84 2.6 1.72 2.64 c1.08 -0.08 1.88 -1.08 1.88 -1.44 z M158.64000000000004 31 l0 3.16 c0 3.28 1.24 4 2.2 4 c0.84 0 1.44 -0.12 2.08 -0.48 c0.12 -0.08 0.24 -0.08 0.36 0.16 l0.28 0.6 c0.12 0.2 0 0.4 -0.16 0.52 c-0.68 0.48 -2.48 1.6 -5.6 1.6 c-2.72 0 -4.44 -1.88 -4.44 -3.72 c0 -1.4 0.08 -4.44 0.08 -5.96 l0.04 -5.28 l-2.2 0 c-0.36 0 -0.64 -0.16 -0.64 -0.56 s0.24 -0.68 0.88 -1 c1.32 -0.6 4.68 -3.6 6.16 -5.28 c0.28 -0.32 0.56 -0.4 0.76 -0.4 c0.36 0 0.52 0.28 0.52 0.6 l-0.16 4.24 l5.08 0 c0.24 0 0.36 0.2 0.28 0.36 l-0.4 1.72 c-0.04 0.16 -0.12 0.32 -0.36 0.32 l-4.68 0 c-0.08 1.64 -0.08 3.56 -0.08 5.4 z M174.20000000000002 40.56 c-2.92 0 -4.92 -0.6 -6.96 -2.92 c-1.52 -1.68 -2.12 -3.8 -2.12 -6.32 c0 -1.8 1 -4.76 3.44 -6.64 c2.04 -1.6 4.08 -2.04 5.96 -2.04 c2.76 0 4.64 0.84 6.44 2.52 c1.96 1.76 2.76 3.92 2.76 6.36 c0 2.32 -1 4.56 -2.56 6.24 c-1.92 2 -4.24 2.8 -6.96 2.8 z M174.44000000000003 38.88 c2.2 0 3.2 -3.24 3.2 -7.64 c0 -4.64 -1.6 -6.92 -3.36 -6.92 c-1 0 -1.64 0.28 -2.16 1.08 c-0.8 1.24 -1.32 2.96 -1.32 6.2 c0 2.32 0.2 3.84 1 5.56 c0.52 1.08 1.16 1.72 2.64 1.72 z M193.28000000000003 16.76 c0 1.28 -0.88 2.68 -3.04 2.72 c-1.6 0.04 -2.8 -1.04 -2.8 -2.6 c0 -1.28 1.32 -2.44 3 -2.44 c1.88 0 2.84 1.2 2.84 2.32 z M196.08 39.72 c0 0.28 -0.08 0.4 -0.36 0.4 c-0.32 0 -2.16 -0.12 -5.64 -0.12 c-2.32 0 -3.88 0.12 -4.32 0.12 c-0.2 0 -0.32 -0.08 -0.32 -0.4 l0 -0.8 c0 -0.24 0.12 -0.32 0.4 -0.32 l1.48 0 c0.44 0 0.72 -0.16 0.76 -0.8 c0.08 -1.2 0.08 -2.44 0.08 -3.56 l-0.08 -5.6 c0 -1.12 -0.24 -1.92 -1.92 -2.52 c-0.44 -0.16 -0.48 -0.32 -0.48 -0.56 l0 -0.44 c0 -0.12 0.08 -0.2 0.44 -0.32 l5.96 -1.92 c0.44 -0.16 0.8 -0.24 1.08 -0.24 c0.32 0 0.44 0.2 0.4 0.48 c-0.08 0.68 -0.08 3.2 -0.08 6.72 l0 4.28 c0 1.56 0 3 0.04 3.44 c0.08 0.76 0.28 1.04 0.72 1.04 l1.44 0 c0.32 0 0.4 0.12 0.4 0.36 l0 0.76 z M204.48000000000002 23.12 l0.44 1.72 l0.32 0 c0.44 -0.52 1.16 -1.04 1.92 -1.44 c0.88 -0.48 1.76 -0.76 3.08 -0.76 c1.56 0 3.08 0.16 4.12 1.12 c1.68 1.56 1.8 2.56 1.8 4.56 l0 4.24 c0 1.36 -0.08 3.24 -0.16 4.64 c-0.04 1.2 0.6 1.4 0.96 1.4 l1.08 0 c0.36 0 0.44 0.12 0.44 0.36 l0 0.72 c0 0.28 -0.08 0.44 -0.32 0.44 c-0.28 0 -1.52 -0.12 -4.72 -0.12 c-2.64 0 -3.92 0.12 -4.2 0.12 c-0.24 0 -0.32 -0.12 -0.32 -0.44 l0 -0.72 c0 -0.28 0.12 -0.36 0.52 -0.36 l0.44 0 c0.28 0 0.64 -0.2 0.72 -0.92 c0.16 -1.04 0.24 -2.32 0.24 -4.16 l0 -4.28 c0 -1.52 -0.12 -2.56 -0.96 -3.32 c-0.72 -0.64 -1.28 -0.72 -1.96 -0.72 c-0.72 0 -1.24 0.2 -2.04 0.8 c-0.48 0.36 -0.8 1.44 -0.8 3.08 l-0.08 8.2 c0 0.72 0.28 1.32 0.64 1.32 l0.52 0 c0.32 0 0.4 0.12 0.4 0.4 l0 0.76 c0 0.24 -0.08 0.36 -0.28 0.36 c-0.28 0 -1.36 -0.12 -4 -0.12 c-2.84 0 -4.12 0.12 -4.36 0.12 c-0.2 0 -0.28 -0.12 -0.28 -0.36 l0 -0.8 c0 -0.24 0.08 -0.36 0.4 -0.36 l0.6 0 c0.44 0 1.12 -0.12 1.12 -0.8 l0 -8.88 c0 -1.2 -0.68 -1.88 -1.6 -2.32 l-0.36 -0.16 c-0.24 -0.12 -0.28 -0.28 -0.28 -0.44 l0 -0.36 c0 -0.2 0.16 -0.32 0.36 -0.4 l5.12 -2.32 c0.32 -0.12 0.6 -0.28 0.92 -0.28 c0.24 0 0.48 0.2 0.56 0.48 z">
</path>
</g>
</svg>